<?xml version="1.0" encoding="UTF-8"?>
<svg width="133px" height="28px" viewBox="0 0 133 28" version="1.1" xmlns="http://www.w3.org/2000/svg" xmlns:xlink="http://www.w3.org/1999/xlink">
    <!-- Generator: Sketch 54.1 (76490) - https://sketchapp.com -->
    <title>windspots</title>
    <desc>Created with Sketch.</desc>
    <g id="Page-1" stroke="none" stroke-width="1" fill="none" fill-rule="evenodd">
        <g id="iPhone-8-Plus-Copy" transform="translate(-168.000000, -346.000000)" fill-rule="nonzero">
            <g id="windspots" transform="translate(168.140000, 346.670000)">
                <path d="M4.74,21.33 C4.4599986,21.33 4.2900003,21.2000013 4.23,20.94 L0.03,6.57 C0.0099999,6.5299998 -1.13686838e-13,6.4800003 -1.13686838e-13,6.42 C-1.13686838e-13,6.1799988 0.1399986,6.06 0.42,6.06 L2.46,6.06 C2.7200013,6.06 2.8799997,6.1899987 2.94,6.45 L5.73,17.16 C5.7500001,17.2200003 5.7799998,17.25 5.82,17.25 C5.8600002,17.25 5.8899999,17.2200003 5.91,17.16 L8.76,6.48 C8.8200003,6.2199987 8.9799987,6.09 9.24,6.09 L11.1,6.09 C11.3600013,6.09 11.5199997,6.2199987 11.58,6.48 L14.52,17.19 C14.5400001,17.2500003 14.5699998,17.28 14.61,17.28 C14.6500002,17.28 14.6799999,17.2500003 14.7,17.19 L17.61,6.45 C17.6700003,6.1899987 17.8299987,6.06 18.09,6.06 L20.13,6.09 C20.2900008,6.09 20.4049996,6.13499955 20.475,6.225 C20.5450003,6.31500045 20.5600002,6.4399992 20.52,6.6 L16.26,20.94 C16.2399999,21.0600006 16.1800005,21.1549997 16.08,21.225 C15.9799995,21.2950004 15.8700006,21.33 15.75,21.33 L13.65,21.33 C13.3699986,21.33 13.2000003,21.2000013 13.14,20.94 L10.26,11.01 C10.2399999,10.9499997 10.2100002,10.92 10.17,10.92 C10.1299998,10.92 10.1000001,10.9499997 10.08,11.01 L7.35,20.94 C7.2899997,21.2000013 7.1300013,21.33 6.87,21.33 L4.74,21.33 Z M25.2,3.78 C24.6199971,3.78 24.1450018,3.60500175 23.775,3.255 C23.4049981,2.90499825 23.22,2.4500028 23.22,1.89 C23.22,1.3299972 23.4049981,0.87500175 23.775,0.525 C24.1450018,0.17499825 24.6199971,2.84217094e-14 25.2,2.84217094e-14 C25.7800029,2.84217094e-14 26.2499982,0.17499825 26.61,0.525 C26.9700018,0.87500175 27.15,1.3299972 27.15,1.89 C27.15,2.4500028 26.9700018,2.90499825 26.61,3.255 C26.2499982,3.60500175 25.7800029,3.78 25.2,3.78 Z M24.21,21.33 C24.0699993,21.33 23.9600004,21.2900004 23.88,21.21 C23.7999996,21.1299996 23.76,21.0200007 23.76,20.88 L23.76,6.51 C23.76,6.3699993 23.7999996,6.2600004 23.88,6.18 C23.9600004,6.0999996 24.0699993,6.06 24.21,6.06 L26.19,6.06 C26.3300007,6.06 26.4399996,6.0999996 26.52,6.18 C26.6000004,6.2600004 26.64,6.3699993 26.64,6.51 L26.64,20.88 C26.64,21.0200007 26.6000004,21.1299996 26.52,21.21 C26.4399996,21.2900004 26.3300007,21.33 26.19,21.33 L24.21,21.33 Z M37.86,5.85 C39.5000082,5.85 40.7999952,6.32499525 41.76,7.275 C42.7200048,8.22500475 43.2,9.5099919 43.2,11.13 L43.2,20.88 C43.2,21.0200007 43.1600004,21.1299996 43.08,21.21 C42.9999996,21.2900004 42.8900007,21.33 42.75,21.33 L40.77,21.33 C40.6299993,21.33 40.5200004,21.2900004 40.44,21.21 C40.3599996,21.1299996 40.32,21.0200007 40.32,20.88 L40.32,11.7 C40.32,10.699995 40.0300029,9.8900031 39.45,9.27 C38.8699971,8.6499969 38.1000048,8.34 37.14,8.34 C36.2799957,8.34 35.5550029,8.59499745 34.965,9.105 C34.374997,9.61500255 34.0300005,10.2999957 33.93,11.16 L33.93,20.88 C33.93,21.0200007 33.8900004,21.1299996 33.81,21.21 C33.7299996,21.2900004 33.6200007,21.33 33.48,21.33 L31.5,21.33 C31.3599993,21.33 31.2500004,21.2900004 31.17,21.21 C31.0899996,21.1299996 31.05,21.0200007 31.05,20.88 L31.05,6.51 C31.05,6.3699993 31.0899996,6.2600004 31.17,6.18 C31.2500004,6.0999996 31.3599993,6.06 31.5,6.06 L33.48,6.06 C33.6200007,6.06 33.7299996,6.0999996 33.81,6.18 C33.8900004,6.2600004 33.93,6.3699993 33.93,6.51 L33.93,7.35 C33.93,7.4100003 33.9499998,7.4499999 33.99,7.47 C34.0300002,7.4900001 34.0599999,7.4800002 34.08,7.44 C34.9200042,6.3799947 36.1799916,5.85 37.86,5.85 Z M56.61,0.78 C56.61,0.6399993 56.6499996,0.5300004 56.73,0.45 C56.8100004,0.3699996 56.9199993,0.33 57.06,0.33 L59.04,0.33 C59.1800007,0.33 59.2899996,0.3699996 59.37,0.45 C59.4500004,0.5300004 59.49,0.6399993 59.49,0.78 L59.49,20.88 C59.49,21.0200007 59.4500004,21.1299996 59.37,21.21 C59.2899996,21.2900004 59.1800007,21.33 59.04,21.33 L57.06,21.33 C56.9199993,21.33 56.8100004,21.2900004 56.73,21.21 C56.6499996,21.1299996 56.61,21.0200007 56.61,20.88 L56.61,20.1 C56.61,20.0399997 56.5900002,20.0000001 56.55,19.98 C56.5099998,19.9599999 56.4700002,19.9699998 56.43,20.01 C55.9899978,20.5100025 55.4750029,20.8949987 54.885,21.165 C54.294997,21.4350014 53.6500035,21.57 52.95,21.57 C51.5099928,21.57 50.3150047,21.2150036 49.365,20.505 C48.4149952,19.7949965 47.7200022,18.7900065 47.28,17.49 C46.9199982,16.489995 46.74,15.2100078 46.74,13.65 C46.74,12.1899927 46.8899985,10.9800048 47.19,10.02 C47.6100021,8.6999934 48.3049951,7.6700037 49.275,6.93 C50.2450048,6.1899963 51.4699926,5.82 52.95,5.82 C53.6500035,5.82 54.294997,5.9499987 54.885,6.21 C55.4750029,6.4700013 55.9899978,6.8499975 56.43,7.35 C56.4700002,7.3900002 56.5099998,7.40500005 56.55,7.395 C56.5900002,7.38499995 56.61,7.3500003 56.61,7.29 L56.61,0.78 Z M55.86,17.46 C56.3400024,16.5799956 56.58,15.3200082 56.58,13.68 C56.58,12.0399918 56.3200026,10.7600046 55.8,9.84 C55.2199971,8.8199949 54.3700056,8.31 53.25,8.31 C52.0899942,8.31 51.2000031,8.7899952 50.58,9.75 C49.9399968,10.750005 49.62,12.0699918 49.62,13.71 C49.62,15.2500077 49.8699975,16.4899953 50.37,17.43 C50.9500029,18.5300055 51.9099933,19.08 53.25,19.08 C54.3900057,19.08 55.259997,18.5400054 55.86,17.46 Z" id="wind" fill="#FFFF00"></path>
                <path d="M68.94,21.48 C67.8599946,21.48 66.9050041,21.3050018 66.075,20.955 C65.2449958,20.6049983 64.6000023,20.130003 64.14,19.53 C63.6799977,18.929997 63.45,18.2700036 63.45,17.55 L63.45,17.22 C63.45,17.1199995 63.4849996,17.0350003 63.555,16.965 C63.6250003,16.8949997 63.7099995,16.86 63.81,16.86 L64.65,16.86 C64.7500005,16.86 64.8349996,16.8899997 64.905,16.95 C64.9750003,17.0100003 65.01,17.0799996 65.01,17.16 L65.01,17.49 C65.01,18.2100036 65.3749963,18.8399973 66.105,19.38 C66.8350036,19.9200027 67.7699943,20.19 68.91,20.19 C70.0300056,20.19 70.9449964,19.9200027 71.655,19.38 C72.3650035,18.8399973 72.72,18.170004 72.72,17.37 C72.72,16.8099972 72.5400018,16.3500018 72.18,15.99 C71.8199982,15.6299982 71.3900025,15.355001 70.89,15.165 C70.3899975,14.9749991 69.6500049,14.7300015 68.67,14.43 C67.5499944,14.0899983 66.6500034,13.7700015 65.97,13.47 C65.2899966,13.1699985 64.7150023,12.7450027 64.245,12.195 C63.7749976,11.6449972 63.54,10.9500042 63.54,10.11 C63.54,8.8899939 64.0249951,7.91500365 64.995,7.185 C65.9650048,6.45499635 67.2399921,6.09 68.82,6.09 C69.8800053,6.09 70.8149959,6.26499825 71.625,6.615 C72.435004,6.96500175 73.0649977,7.439997 73.515,8.04 C73.9650022,8.640003 74.19,9.3199962 74.19,10.08 L74.19,10.11 C74.19,10.2100005 74.1550003,10.2949996 74.085,10.365 C74.0149996,10.4350004 73.9300005,10.47 73.83,10.47 L73.02,10.47 C72.9199995,10.47 72.8350003,10.4500002 72.765,10.41 C72.6949996,10.3699998 72.66,10.3200003 72.66,10.26 L72.66,10.08 C72.66,9.3199962 72.3050035,8.68500255 71.595,8.175 C70.8849964,7.66499745 69.9500058,7.41 68.79,7.41 C67.6699944,7.41 66.7700034,7.64499765 66.09,8.115 C65.4099966,8.58500235 65.07,9.219996 65.07,10.02 C65.07,10.7800038 65.3849968,11.3499981 66.015,11.73 C66.6450031,12.1100019 67.6299933,12.499998 68.97,12.9 C70.1500059,13.2400017 71.0849965,13.5549986 71.775,13.845 C72.4650034,14.1350015 73.0599975,14.5599972 73.56,15.12 C74.0600025,15.6800028 74.31,16.3999956 74.31,17.28 C74.31,18.5400063 73.8200049,19.5549961 72.84,20.325 C71.8599951,21.0950038 70.5600081,21.48 68.94,21.48 Z M89.94,9.96 C90.1600011,10.8000042 90.27,12.0599916 90.27,13.74 C90.27,14.6400045 90.2500002,15.3799971 90.21,15.96 C90.1699998,16.5400029 90.0900006,17.0599977 89.97,17.52 C89.6499984,18.7600062 89.0150047,19.7449964 88.065,20.475 C87.1149952,21.2050037 85.9500069,21.57 84.57,21.57 C83.6899956,21.57 82.9050034,21.3950018 82.215,21.045 C81.5249965,20.6949982 80.9600022,20.1900033 80.52,19.53 C80.4999999,19.4899998 80.4700002,19.4799999 80.43,19.5 C80.3899998,19.5200001 80.37,19.5499998 80.37,19.59 L80.37,26.85 C80.37,26.9500005 80.3350003,27.0349997 80.265,27.105 C80.1949996,27.1750004 80.1100005,27.21 80.01,27.21 L79.14,27.21 C79.0399995,27.21 78.9550003,27.1750004 78.885,27.105 C78.8149996,27.0349997 78.78,26.9500005 78.78,26.85 L78.78,6.57 C78.78,6.47 78.8149996,6.38500035 78.885,6.315 C78.9550003,6.24499965 79.0399995,6.21 79.14,6.21 L80.01,6.21 C80.1100005,6.21 80.1949996,6.24499965 80.265,6.315 C80.3350003,6.38500035 80.37,6.4699995 80.37,6.57 L80.37,7.98 C80.37,8.0400003 80.3849998,8.07499995 80.415,8.085 C80.4450001,8.09500005 80.4799998,8.0800002 80.52,8.04 C80.9600022,7.3799967 81.5249965,6.8700018 82.215,6.51 C82.9050034,6.1499982 83.6899956,5.97 84.57,5.97 C85.9300068,5.97 87.0799953,6.3299964 88.02,7.05 C88.9600047,7.7700036 89.5999983,8.7399939 89.94,9.96 Z M88.2,17.43 C88.3800009,17.0099979 88.5049996,16.5600024 88.575,16.08 C88.6450003,15.5999976 88.68,14.8300053 88.68,13.77 C88.68,12.769995 88.6500003,12.0350023 88.59,11.565 C88.5299997,11.0949977 88.4300007,10.6400022 88.29,10.2 C88.0699989,9.3599958 87.6100035,8.6800026 86.91,8.16 C86.2099965,7.6399974 85.3700049,7.38 84.39,7.38 C83.4499953,7.38 82.6650031,7.6399974 82.035,8.16 C81.4049968,8.6800026 80.9800011,9.3599958 80.76,10.2 C80.6199993,10.5800019 80.5250002,11.0049977 80.475,11.475 C80.4249997,11.9450024 80.4,12.6999948 80.4,13.74 C80.4,14.8000053 80.4299997,15.5749976 80.49,16.065 C80.5500003,16.5550024 80.6499993,16.999998 80.79,17.4 C80.990001,18.2200041 81.4099968,18.8849974 82.05,19.395 C82.6900032,19.9050026 83.4699954,20.16 84.39,20.16 C85.3300047,20.16 86.1399966,19.9050026 86.82,19.395 C87.5000034,18.8849974 87.9599988,18.230004 88.2,17.43 Z M100.41,21.57 C98.9899929,21.57 97.7850049,21.2000037 96.795,20.46 C95.804995,19.7199963 95.1300018,18.7300062 94.77,17.49 C94.5299988,16.689996 94.41,15.4400085 94.41,13.74 C94.41,12.139992 94.5199989,10.9000044 94.74,10.02 C95.1000018,8.7799938 95.779995,7.79500365 96.78,7.065 C97.780005,6.33499635 98.9899929,5.97 100.41,5.97 C101.810007,5.97 103.014995,6.3399963 104.025,7.08 C105.035005,7.8200037 105.709998,8.7999939 106.05,10.02 C106.270001,10.820004 106.38,12.0599916 106.38,13.74 C106.38,15.4400085 106.270001,16.689996 106.05,17.49 C105.709998,18.7300062 105.035005,19.7199963 104.025,20.46 C103.014995,21.2000037 101.810007,21.57 100.41,21.57 Z M100.41,20.16 C101.470005,20.16 102.374996,19.8700029 103.125,19.29 C103.875004,18.7099971 104.359999,17.9300049 104.58,16.95 C104.700001,16.3899972 104.76,15.3300078 104.76,13.77 C104.76,12.169992 104.700001,11.1100026 104.58,10.59 C104.359999,9.6099951 103.875004,8.8300029 103.125,8.25 C102.374996,7.6699971 101.460005,7.38 100.38,7.38 C99.2999946,7.38 98.3900037,7.6699971 97.65,8.25 C96.9099963,8.8300029 96.4300011,9.6099951 96.21,10.59 C96.0899994,11.1100026 96.03,12.169992 96.03,13.77 C96.03,15.370008 96.0899994,16.4299974 96.21,16.95 C96.4300011,17.9300049 96.9099963,18.7099971 97.65,19.29 C98.3900037,19.8700029 99.3099945,20.16 100.41,20.16 Z M117.39,7.2 C117.39,7.3000005 117.355,7.38499965 117.285,7.455 C117.215,7.52500035 117.13,7.56 117.03,7.56 L113.58,7.56 C113.5,7.56 113.46,7.5999996 113.46,7.68 L113.46,17.13 C113.46,18.1500051 113.689998,18.864998 114.15,19.275 C114.610002,19.6850021 115.349995,19.89 116.37,19.89 L117,19.89 C117.1,19.89 117.185,19.9249996 117.255,19.995 C117.325,20.0650004 117.36,20.1499995 117.36,20.25 L117.36,20.94 C117.36,21.1800012 117.240001,21.3 117,21.3 L116.16,21.33 C114.779993,21.33 113.730004,21.0600027 113.01,20.52 C112.289996,19.9799973 111.92,18.9900072 111.9,17.55 L111.9,7.68 C111.9,7.5999996 111.86,7.56 111.78,7.56 L110.04,7.56 C109.939999,7.56 109.855,7.52500035 109.785,7.455 C109.715,7.38499965 109.68,7.3000005 109.68,7.2 L109.68,6.57 C109.68,6.4699995 109.715,6.38500035 109.785,6.315 C109.855,6.24499965 109.939999,6.21 110.04,6.21 L111.78,6.21 C111.86,6.21 111.9,6.1700004 111.9,6.09 L111.9,2.73 C111.9,2.6299995 111.935,2.54500035 112.005,2.475 C112.075,2.40499965 112.159999,2.37 112.26,2.37 L113.1,2.37 C113.2,2.37 113.285,2.40499965 113.355,2.475 C113.425,2.54500035 113.46,2.6299995 113.46,2.73 L113.46,6.09 C113.46,6.1700004 113.5,6.21 113.58,6.21 L117.03,6.21 C117.13,6.21 117.215,6.24499965 117.285,6.315 C117.355,6.38500035 117.39,6.4699995 117.39,6.57 L117.39,7.2 Z M126.57,21.48 C125.489995,21.48 124.535004,21.3050018 123.705,20.955 C122.874996,20.6049983 122.230002,20.130003 121.77,19.53 C121.309998,18.929997 121.08,18.2700036 121.08,17.55 L121.08,17.22 C121.08,17.1199995 121.115,17.0350003 121.185,16.965 C121.255,16.8949997 121.339999,16.86 121.44,16.86 L122.28,16.86 C122.38,16.86 122.465,16.8899997 122.535,16.95 C122.605,17.0100003 122.64,17.0799996 122.64,17.16 L122.64,17.49 C122.64,18.2100036 123.004996,18.8399973 123.735,19.38 C124.465004,19.9200027 125.399994,20.19 126.54,20.19 C127.660006,20.19 128.574996,19.9200027 129.285,19.38 C129.995004,18.8399973 130.35,18.170004 130.35,17.37 C130.35,16.8099972 130.170002,16.3500018 129.81,15.99 C129.449998,15.6299982 129.020002,15.355001 128.52,15.165 C128.019997,14.9749991 127.280005,14.7300015 126.3,14.43 C125.179994,14.0899983 124.280003,13.7700015 123.6,13.47 C122.919997,13.1699985 122.345002,12.7450027 121.875,12.195 C121.404998,11.6449972 121.17,10.9500042 121.17,10.11 C121.17,8.8899939 121.654995,7.91500365 122.625,7.185 C123.595005,6.45499635 124.869992,6.09 126.45,6.09 C127.510005,6.09 128.444996,6.26499825 129.255,6.615 C130.065004,6.96500175 130.694998,7.439997 131.145,8.04 C131.595002,8.640003 131.82,9.3199962 131.82,10.08 L131.82,10.11 C131.82,10.2100005 131.785,10.2949996 131.715,10.365 C131.645,10.4350004 131.56,10.47 131.46,10.47 L130.65,10.47 C130.549999,10.47 130.465,10.4500002 130.395,10.41 C130.325,10.3699998 130.29,10.3200003 130.29,10.26 L130.29,10.08 C130.29,9.3199962 129.935004,8.68500255 129.225,8.175 C128.514996,7.66499745 127.580006,7.41 126.42,7.41 C125.299994,7.41 124.400003,7.64499765 123.72,8.115 C123.039997,8.58500235 122.7,9.219996 122.7,10.02 C122.7,10.7800038 123.014997,11.3499981 123.645,11.73 C124.275003,12.1100019 125.259993,12.499998 126.6,12.9 C127.780006,13.2400017 128.714997,13.5549986 129.405,13.845 C130.095003,14.1350015 130.689997,14.5599972 131.19,15.12 C131.690002,15.6800028 131.94,16.3999956 131.94,17.28 C131.94,18.5400063 131.450005,19.5549961 130.47,20.325 C129.489995,21.0950038 128.190008,21.48 126.57,21.48 Z" id="spots" fill="#FFFFFF"></path>
            </g>
        </g>
    </g>
</svg>